<svg width="121" height="109" viewBox="0 0 121 109" fill="none" xmlns="http://www.w3.org/2000/svg">
<path d="M36.4014 105.445L1.64378 45.0509C1.15732 44.2057 0.914091 43.783 1.03026 43.373C1.14644 42.9632 1.57513 42.7313 2.43253 42.2676L74.7683 3.14469C75.6299 2.67869 76.4704 3.79357 75.7862 4.49497L46.1259 34.2485C43.5289 36.8536 42.2305 38.1562 42.001 39.8367C41.7716 41.5171 42.6734 43.1206 44.4769 46.3277L58.0164 70.4039C58.57 71.3883 58.8467 71.8805 58.8426 72.4179C58.8384 72.9553 58.554 73.4431 57.9852 74.4188L39.8908 105.456C39.1112 106.793 38.7214 107.461 38.1405 107.46C37.5595 107.458 37.1735 106.787 36.4014 105.445Z" fill="#5675FF"/>
<path d="M120.05 39.6992L83.2926 3.32947C82.8979 2.93898 82.2623 2.94107 81.8701 3.33412L46.1312 39.161C45.4924 39.8014 45.3574 40.789 45.8009 41.5776L81.7062 105.406C82.0905 106.089 83.0725 106.092 83.4607 105.411L120.218 40.917C120.443 40.5201 120.375 40.0205 120.05 39.6992Z" fill="url(#paint0_linear_5_22)"/>
<path fill-rule="evenodd" clip-rule="evenodd" d="M43.0935 37.2065C41.6563 38.6474 41.3526 40.8696 42.3507 42.6438L59.1251 72.4635L39.8908 105.455C39.1112 106.793 38.7214 107.461 38.1405 107.46C37.5595 107.458 37.1735 106.787 36.4014 105.445L1.64377 45.0509C1.15732 44.2056 0.914088 43.783 1.03026 43.373C1.14643 42.9632 1.57511 42.7312 2.43247 42.2676L75.0684 2.98234C75.7967 2.58845 76.5089 3.39708 76.1758 4.04303L43.0935 37.2065Z" fill="#5675FF"/>
<defs>
<linearGradient id="paint0_linear_5_22" x1="45.0508" y1="40.2439" x2="121.095" y2="40.2439" gradientUnits="userSpaceOnUse">
<stop offset="0.131094" stop-color="#B099DB"/>
<stop offset="0.464557" stop-color="#994FF9"/>
<stop offset="0.718899" stop-color="#746CFB"/>
<stop offset="0.857469" stop-color="#7D7CF7"/>
</linearGradient>
</defs>
</svg>
